<svg xmlns="http://www.w3.org/2000/svg" width="1200" height="630" viewBox="0 0 1200 630" role="img" aria-labelledby="title desc">
  <title id="title">Kevin Bravo — Product Engineer, AI Engineer, and Full-Stack Software Engineer</title>
  <desc id="desc">Social preview for Kevin Bravo's engineering portfolio, featuring his portrait and areas of expertise.</desc>
  <defs>
    <linearGradient id="field" x1="0" y1="0" x2="1" y2="1">
      <stop offset="0" stop-color="#090909"/>
      <stop offset="0.58" stop-color="#11100e"/>
      <stop offset="1" stop-color="#1d1409"/>
    </linearGradient>
    <radialGradient id="amberGlow" cx="0.82" cy="0.42" r="0.58">
      <stop offset="0" stop-color="#f59e0b" stop-opacity="0.28"/>
      <stop offset="0.52" stop-color="#d97706" stop-opacity="0.08"/>
      <stop offset="1" stop-color="#d97706" stop-opacity="0"/>
    </radialGradient>
    <linearGradient id="portraitShade" x1="0" y1="0" x2="0" y2="1">
      <stop offset="0.55" stop-color="#090909" stop-opacity="0"/>
      <stop offset="1" stop-color="#090909" stop-opacity="0.46"/>
    </linearGradient>
    <linearGradient id="amberLine" x1="0" y1="0" x2="1" y2="0">
      <stop offset="0" stop-color="#fbbf24"/>
      <stop offset="1" stop-color="#d97706"/>
    </linearGradient>
    <clipPath id="portraitClip">
      <path d="M990 137C1071 134 1138 201 1142 283C1146 367 1079 455 991 459C905 463 834 390 836 302C838 214 906 140 990 137Z"/>
    </clipPath>
    <filter id="grain" x="0" y="0" width="100%" height="100%">
      <feTurbulence type="fractalNoise" baseFrequency="0.8" numOctaves="3" seed="7" stitchTiles="stitch"/>
      <feColorMatrix type="saturate" values="0"/>
    </filter>
    <filter id="shadow" x="-25%" y="-25%" width="150%" height="150%">
      <feDropShadow dx="0" dy="24" stdDeviation="26" flood-color="#000000" flood-opacity="0.46"/>
    </filter>
  </defs>

  <rect width="1200" height="630" fill="url(#field)"/>
  <rect width="1200" height="630" fill="url(#amberGlow)"/>
  <rect width="1200" height="630" filter="url(#grain)" opacity="0.035" style="mix-blend-mode:screen"/>

  <!-- Fine engineering grid -->
  <g stroke="#ffffff" stroke-opacity="0.035" stroke-width="1">
    <path d="M0 126H1200M0 252H1200M0 378H1200M0 504H1200"/>
    <path d="M120 0V630M360 0V630M600 0V630M840 0V630M1080 0V630"/>
  </g>

  <!-- Portrait orbit, borrowed from the site's hero language -->
  <g fill="none" stroke="#f59e0b">
    <circle cx="990" cy="299" r="195" stroke-opacity="0.11" stroke-width="1.2"/>
    <circle cx="990" cy="299" r="168" stroke-opacity="0.15" stroke-width="1" stroke-dasharray="7 11"/>
    <circle cx="1140" cy="210" r="5" fill="#fbbf24" stroke="none"/>
    <circle cx="837" cy="368" r="3.5" fill="#d97706" stroke="none"/>
  </g>

  <!-- Compact identity mark: the same KB wordmark used in the navbar -->
  <g font-family="Inter, Helvetica Neue, Arial, sans-serif">
    <text x="76" y="99" fill="#fafafa" font-size="31" font-weight="800" letter-spacing="-1.4">KB</text>
    <rect x="76" y="109" width="44" height="3" rx="1.5" fill="#d97706"/>
    <text x="144" y="88" fill="#fafafa" font-size="20" font-weight="700" letter-spacing="-0.3">Kevin Bravo</text>
    <text x="144" y="108" fill="#a3a3a3" font-size="11" font-weight="600" letter-spacing="1.8">KEVINBRAVO.COM</text>
  </g>

  <!-- Professional positioning -->
  <g font-family="Inter, Helvetica Neue, Arial, sans-serif">
    <text x="76" y="242" fill="#fafafa" font-size="70" font-weight="800" letter-spacing="-3">Product Engineer</text>
    <text x="79" y="287" fill="#fbbf24" font-size="17" font-weight="650" letter-spacing="0.2">Product Engineer · AI Engineer · Full-Stack Software Engineer</text>
    <text x="79" y="348" fill="#c8c8c8" font-size="19" font-weight="400" letter-spacing="-0.1">I design and ship full-stack products, internal platforms, and AI agent</text>
    <text x="79" y="378" fill="#c8c8c8" font-size="19" font-weight="400" letter-spacing="-0.1">systems—owning architecture, data models, backend, interface, and</text>
    <text x="79" y="408" fill="#c8c8c8" font-size="19" font-weight="400" letter-spacing="-0.1">production delivery.</text>
  </g>

  <!-- Technical focus and working style -->
  <g font-family="Inter, Helvetica Neue, Arial, sans-serif">
    <text x="76" y="482" fill="#a3a3a3" font-size="11" font-weight="700" letter-spacing="2.1">HIGH OWNERSHIP · FULL AGENCY</text>
    <rect x="76" y="499" width="614" height="1.5" fill="url(#amberLine)" opacity="0.72"/>
    <text x="76" y="536" fill="#e5e5e5" font-size="13" font-weight="700" letter-spacing="0.65"><tspan>BACKEND ARCHITECTURE</tspan><tspan dx="14" fill="#d97706" letter-spacing="0">•</tspan><tspan dx="14">INFRASTRUCTURE</tspan><tspan dx="14" fill="#d97706" letter-spacing="0">•</tspan><tspan dx="14">DEV TOOLING</tspan><tspan dx="14" fill="#d97706" letter-spacing="0">•</tspan><tspan dx="14">FULL-STACK DELIVERY</tspan></text>
  </g>

  <!-- Portrait -->
  <g clip-path="url(#portraitClip)" filter="url(#shadow)">
    <rect x="828" y="130" width="322" height="340" fill="#171717"/>
    <image href="main_photo.avif" x="828" y="130" width="322" height="340" preserveAspectRatio="xMidYMid slice"/>
    <rect x="828" y="130" width="322" height="340" fill="url(#portraitShade)"/>
  </g>
  <path d="M990 137C1071 134 1138 201 1142 283C1146 367 1079 455 991 459C905 463 834 390 836 302C838 214 906 140 990 137Z" fill="none" stroke="#fbbf24" stroke-opacity="0.38" stroke-width="1.4"/>
</svg>
