<svg xmlns="http://www.w3.org/2000/svg" viewBox="0 0 1600 900" role="img" aria-labelledby="title desc">
  <title id="title">PES calendar and activity overview</title>
  <desc id="desc">A recreated product screenshot showing scholar activity KPIs, a monthly calendar, and an activities list.</desc>
  <rect width="1600" height="900" fill="#eef8f2"/>
  <rect width="66" height="900" fill="#078b3e"/>
  <g fill="#fff" opacity=".95">
    <path d="M20 52h26l16 9-29 16L4 61l16-9Zm-9 18 22 13 22-13v21L33 104 11 91V70Z"/>
    <circle cx="33" cy="138" r="7"/><circle cx="50" cy="138" r="7"/><circle cx="33" cy="155" r="7"/><circle cx="50" cy="155" r="7"/>
    <path d="M18 265h30v8H18zM23 282h20v8H23zM18 300h30v8H18z"/>
    <circle cx="26" cy="435" r="10"/><circle cx="42" cy="435" r="10"/><path d="M12 462c4-15 38-15 42 0v8H12z"/>
  </g>
  <rect x="90" y="82" width="1470" height="142" rx="10" fill="#fff" stroke="#dbe5df"/>
  <g font-family="ui-sans-serif, -apple-system, BlinkMacSystemFont, Segoe UI, sans-serif">
    <g transform="translate(112 106)">
      <rect width="330" height="96" rx="8" fill="#fff"/>
      <text x="18" y="30" fill="#2563eb" font-size="18" font-weight="700">Actividades formativas realizadas</text>
      <text x="18" y="78" fill="#111827" font-size="44" font-weight="800">21</text>
      <rect x="270" y="24" width="52" height="52" rx="10" fill="#2563eb"/>
    </g>
    <g transform="translate(462 106)">
      <text x="18" y="30" fill="#ef4444" font-size="18" font-weight="700">Chat clubs de inglés realizados</text>
      <text x="18" y="78" fill="#111827" font-size="44" font-weight="800">21</text>
      <rect x="270" y="24" width="52" height="52" rx="10" fill="#ef4444"/>
    </g>
    <g transform="translate(812 106)">
      <text x="18" y="30" fill="#08a34a" font-size="18" font-weight="700">Horas de voluntariado realizadas</text>
      <text x="18" y="78" fill="#111827" font-size="44" font-weight="800">890,5</text>
      <rect x="270" y="24" width="52" height="52" rx="10" fill="#10b981"/>
    </g>
    <g transform="translate(1162 106)">
      <text x="18" y="30" fill="#d97706" font-size="18" font-weight="700">Becarios activos</text>
      <text x="18" y="78" fill="#111827" font-size="44" font-weight="800">144</text>
      <rect x="270" y="24" width="52" height="52" rx="10" fill="#f59e0b"/>
    </g>
  </g>
  <rect x="90" y="250" width="1084" height="595" rx="10" fill="#fff" stroke="#dbe5df"/>
  <rect x="1188" y="250" width="372" height="595" rx="10" fill="#fff" stroke="#dbe5df"/>
  <g font-family="ui-sans-serif, -apple-system, BlinkMacSystemFont, Segoe UI, sans-serif" fill="#111827">
    <text x="488" y="300" font-size="26" font-weight="800">mayo 2026</text>
    <rect x="715" y="270" width="64" height="38" rx="5" fill="#059669"/>
    <text x="736" y="296" font-size="18" font-weight="800" fill="#fff">Mes</text>
    <g fill="#4b5563" font-size="18" font-weight="800" text-anchor="middle">
      <text x="178" y="365">LUN.</text><text x="330" y="365">MAR.</text><text x="482" y="365">MIÉ.</text><text x="634" y="365">JUE.</text><text x="786" y="365">VIE.</text><text x="938" y="365">SÁB.</text><text x="1090" y="365">DOM.</text>
    </g>
    <g stroke="#e5e7eb" stroke-width="1.4">
      <path d="M116 382h1028M116 485h1028M116 588h1028M116 691h1028M116 794h1028"/>
      <path d="M268 382v412M420 382v412M572 382v412M724 382v412M876 382v412M1028 382v412"/>
    </g>
    <g font-size="20" fill="#1f2937" text-anchor="end">
      <text x="250" y="445">04</text><text x="402" y="445">05</text><text x="554" y="445">06</text><text x="706" y="445">07</text><text x="858" y="445">08</text><text x="1010" y="445">09</text><text x="1125" y="445">10</text>
      <text x="250" y="548">11</text><text x="402" y="548">12</text><text x="554" y="548">13</text><text x="706" y="548">14</text><text x="858" y="548">15</text><text x="1010" y="548">16</text><text x="1125" y="548">17</text>
    </g>
    <g font-size="15" font-weight="800" fill="#fff">
      <rect x="118" y="520" width="148" height="26" rx="4" fill="#ef4444"/><text x="124" y="539">(Presencial) How t...</text>
      <rect x="422" y="520" width="148" height="26" rx="4" fill="#ef4444"/><text x="428" y="539">(Virtual) Canaima</text>
      <rect x="878" y="416" width="148" height="26" rx="4" fill="#2b6cb0"/><text x="884" y="435">(Presencial) Ética...</text>
      <rect x="422" y="622" width="148" height="26" rx="4" fill="#2b6cb0"/><text x="428" y="641">(Presencial) Invest...</text>
      <rect x="574" y="622" width="148" height="26" rx="4" fill="#10b981"/><text x="580" y="641">(Presencial) Protoc...</text>
    </g>
    <text x="1215" y="295" font-size="18" font-weight="800">Listado de actividades</text>
    <g font-size="17">
      <text x="1224" y="380" font-weight="800">Próximos 7 días</text><text x="1224" y="405" fill="#6b7280">Actividades próximas</text><circle cx="1474" cy="386" r="15" fill="#eef2f7"/><text x="1469" y="392" font-weight="800">3</text>
      <path d="M1224 440h300" stroke="#e5e7eb"/>
      <text x="1224" y="482" font-weight="800">Futuras actividades</text><text x="1224" y="507" fill="#6b7280">Planificate con tiempo.</text><circle cx="1474" cy="488" r="15" fill="#eef2f7"/><text x="1469" y="494" font-weight="800">2</text>
      <path d="M1224 542h300" stroke="#e5e7eb"/>
      <text x="1224" y="584" font-weight="800">Pendiente de asistencia</text><text x="1224" y="609" fill="#6b7280">Actividades ya ocurridas.</text><circle cx="1474" cy="590" r="15" fill="#eef2f7"/><text x="1464" y="596" font-weight="800">18</text>
    </g>
  </g>
</svg>
